<?xml version="1.0" encoding="UTF-8" standalone="no"?>
<svg
   xmlns:dc="http://purl.org/dc/elements/1.1/"
   xmlns:cc="http://creativecommons.org/ns#"
   xmlns:rdf="http://www.w3.org/1999/02/22-rdf-syntax-ns#"
   xmlns:svg="http://www.w3.org/2000/svg"
   xmlns="http://www.w3.org/2000/svg"
   viewBox="0 0 693.33331 693.33331"
   height="693.33331"
   width="693.33331"
   xml:space="preserve"
   id="svg2"
   version="1.1"><metadata
     id="metadata8"><rdf:RDF><cc:Work
         rdf:about=""><dc:format>image/svg+xml</dc:format><dc:type
           rdf:resource="http://purl.org/dc/dcmitype/StillImage" /></cc:Work></rdf:RDF></metadata><defs
     id="defs6"><clipPath
       id="clipPath24"
       clipPathUnits="userSpaceOnUse"><path
         id="path22"
         d="M 0,520 H 520 V 0 H 0 Z" /></clipPath></defs><g
     transform="matrix(1.3333333,0,0,-1.3333333,0,693.33333)"
     id="g10"><path
       id="path12"
       style="fill:#ffffff;fill-opacity:1;fill-rule:nonzero;stroke:none"
       d="M 0,0 H 520 V 520 H 0 Z" /><g
       transform="translate(233.1346,295.093)"
       id="g14"><path
         id="path16"
         style="fill:#4eaead;fill-opacity:1;fill-rule:nonzero;stroke:none"
         d="M 0,0 -63.825,-120.734 H 61.676 Z" /></g><g
       id="g18"><g
         clip-path="url(#clipPath24)"
         id="g20"><g
           transform="translate(261.8463,174.3592)"
           id="g26"><path
             id="path28"
             style="fill:#4eaead;fill-opacity:1;fill-rule:nonzero;stroke:none"
             d="m 0,0 46.9,88.717 c 1.355,2.565 5.028,2.571 6.393,0.01 L 100.575,0 Z" /></g><g
           transform="translate(310.2256,326.7403)"
           id="g30"><path
             id="path32"
             style="fill:#e5593b;fill-opacity:1;fill-rule:nonzero;stroke:none"
             d="m 0,0 c 0,-9.089 -7.369,-16.458 -16.458,-16.458 -9.089,0 -16.458,7.369 -16.458,16.458 0,9.089 7.369,16.458 16.458,16.458 C -7.369,16.458 0,9.089 0,0" /></g><g
           transform="translate(404.0775,177.8361)"
           id="g34"><path
             id="path36"
             style="fill:#404041;fill-opacity:1;fill-rule:nonzero;stroke:none"
             d="m 0,0 h -11.07 c -2.327,0 -4.213,-1.886 -4.213,-4.213 0,-2.328 1.886,-4.214 4.213,-4.214 H 0 c 2.327,0 4.213,1.886 4.213,4.214 C 4.213,-1.886 2.327,0 0,0" /></g><g
           transform="translate(381.9126,177.8361)"
           id="g38"><path
             id="path40"
             style="fill:#404041;fill-opacity:1;fill-rule:nonzero;stroke:none"
             d="m 0,0 c -2.327,0 -4.214,-1.886 -4.214,-4.213 0,-2.328 1.887,-4.214 4.214,-4.214 h 0.034 c 2.328,0 4.197,1.886 4.197,4.214 C 4.231,-1.886 2.327,0 0,0" /></g><g
           transform="translate(277.6666,216.6394)"
           id="g42"><path
             id="path44"
             style="fill:#404041;fill-opacity:1;fill-rule:nonzero;stroke:none"
             d="M 0,0 C 0.029,0.048 0.062,0.092 0.089,0.142 L 28.208,52.909 77.081,-38.803 H 20.678 Z M 93.08,-38.803 H 84.72 L 31.353,61.343 c -0.61,1.144 -1.787,1.778 -2.999,1.771 -0.061,0.006 -0.119,-10e-4 -0.18,0.001 -0.035,-0.002 -0.071,0.003 -0.107,-0.001 -1.215,0.01 -2.394,-0.625 -3.005,-1.771 L -3.813,7.156 -46.392,87.057 c -0.762,1.429 -2.231,2.221 -3.747,2.213 -0.066,0.006 -0.131,-0.002 -0.197,0.002 -0.055,-0.003 -0.11,0.003 -0.165,-0.002 -1.516,0.01 -2.987,-0.782 -3.749,-2.213 L -65.802,65.38 c -1.094,-2.054 -0.317,-4.606 1.737,-5.7 0.631,-0.337 1.309,-0.496 1.978,-0.496 1.507,0 2.964,0.81 3.722,2.232 l 8.044,15.095 61.45,-115.314 h -122.901 l 37.387,70.158 c 1.095,2.054 0.317,4.606 -1.736,5.701 -2.054,1.093 -4.606,0.316 -5.701,-1.737 l -39.498,-74.122 h -40.424 c -2.326,0 -4.213,-1.886 -4.213,-4.213 0,-2.328 1.887,-4.214 4.213,-4.214 h 42.935 c 0.005,0 0.009,-0.001 0.014,-0.001 0.004,0 0.008,0.001 0.012,0.001 H 18.14 c 0.004,0 0.008,-0.001 0.012,-0.001 0.005,0 0.009,0.001 0.014,0.001 H 93.08 c 2.327,0 4.214,1.886 4.214,4.214 0,2.327 -1.887,4.213 -4.214,4.213" /></g><g
           transform="translate(203.9621,258.2303)"
           id="g46"><path
             id="path48"
             style="fill:#404041;fill-opacity:1;fill-rule:nonzero;stroke:none"
             d="m 0,0 c 0.631,-0.336 1.309,-0.496 1.978,-0.496 1.507,0 2.964,0.81 3.722,2.233 l 3.256,6.11 c 1.094,2.053 0.317,4.605 -1.737,5.7 -2.053,1.094 -4.606,0.316 -5.7,-1.737 L -1.737,5.7 C -2.832,3.647 -2.054,1.094 0,0" /></g><g
           transform="translate(287.8097,342.1648)"
           id="g50"><path
             id="path52"
             style="fill:#404041;fill-opacity:1;fill-rule:nonzero;stroke:none"
             d="m 0,0 c 7.714,0 13.989,-6.276 13.989,-13.989 0,-7.714 -6.275,-13.989 -13.989,-13.989 -7.714,0 -13.989,6.275 -13.989,13.989 C -13.989,-6.276 -7.714,0 0,0 m 0,-36.405 c 12.36,0 22.416,10.055 22.416,22.416 0,12.36 -10.056,22.416 -22.416,22.416 -12.36,0 -22.416,-10.056 -22.416,-22.416 0,-12.361 10.056,-22.416 22.416,-22.416" /></g></g></g></g></svg>